# xmcd
#
# Track frame offsets: 
#        150
#        17196
#        39512
#        58061
#        74418
#        85909
#        102591
#        114907
#        130572
#        147694
#
# Disc length: 2223 seconds
#
# Revision: 0
# Processed by: cddbd v1.5.2PL0 Copyright (c) Steve Scherf et al.
# Submitted via: ExactAudioCopy v0.95b3
#
DISCID=8e08ad0a
DTITLE=A.A. Bondy - When The Devil's Loose
DYEAR=2009
DGENRE=Booty Bass
TTITLE0=Mightiest of Guns
TTITLE1=A Slow Parade
TTITLE2=When The Devil's Loose
TTITLE3=To The Morning
TTITLE4=Oh The Vampyre
TTITLE5=I Can See The Pines Are Dancing
TTITLE6=False River
TTITLE7=On The Moon
TTITLE8=The Mercy Wheel
TTITLE9=The Coal Hits The Fire
EXTD=
EXTT0=
EXTT1=
EXTT2=
EXTT3=
EXTT4=
EXTT5=
EXTT6=
EXTT7=
EXTT8=
EXTT9=
PLAYORDER=
